PathFileType	4	(X/Y/Z)	/Users/niels/Desktop/University/Third Semester/Perception and Action/Exam/Gymnastics Motion Tracking/Code for Gym Tracking/Analyzed Data/Webcam_Backflip/id5_1_trajectory_Sports2D/id5_1_trajectory_Sports2D_px_person00.trc
DataRate	CameraRate	NumFrames	NumMarkers	Units	OrigDataRate	OrigDataStartFrame	OrigNumFrames
29.81132075471698	29.81132075471698	8	22	m	29.81132075471698	0	159
Frame#	Time	Hip			RHip			RKnee			RAnkle			RBigToe			RSmallToe			RHeel			LHip			LKnee			LAnkle			LBigToe			LSmallToe			LHeel			Neck			Head			Nose			RShoulder			RElbow			RWrist			LShoulder			LElbow			LWrist		
		X1	Y1	Z1	X2	Y2	Z2	X3	Y3	Z3	X4	Y4	Z4	X5	Y5	Z5	X6	Y6	Z6	X7	Y7	Z7	X8	Y8	Z8	X9	Y9	Z9	X10	Y10	Z10	X11	Y11	Z11	X12	Y12	Z12	X13	Y13	Z13	X14	Y14	Z14	X15	Y15	Z15	X16	Y16	Z16	X17	Y17	Z17	X18	Y18	Z18	X19	Y19	Z19	X20	Y20	Z20	X21	Y21	Z21	X22	Y22	Z22
0	0.0	0.9603429027659716	-0.559767018670275	0.0	0.9603313651658417	-0.5597762970185146	0.0	0.9838870913387814	-0.6687804922339483	0.0	0.9559139565566394	-0.7704253025920763	0.0	0.9912763513224891	-0.7954649422001724	0.0	0.9824359890183274	-0.798420875408215	0.0	0.9426644165017718	-0.7851663533200502	0.0	0.9632855448772379	-0.5583025692032031	0.0	0.9824143580366316	-0.6673006977359267	0.0	0.9573816032011678	-0.7645206038140475	0.0	0.9927179413378026	-0.7895844185076072	0.0	0.9897739673184863	-0.786634807049731	0.0	0.9441262445918086	-0.7792673352917563	0.0	0.986846024713034	-0.4183518000848263	0.0	1.0045324873005066	-0.34911294526522624	0.0	1.0163067523497744	-0.3874218068251935	0.0	0.9883042394817447	-0.4286517702215962	0.0	1.0633972350399095	-0.4300892042151533	0.0	1.13110628880656	-0.40356259609504364	0.0	0.9765294234933691	-0.42865737191574277	0.0	1.0457002947799532	-0.4360129928133288	0.0	1.1192810592760472	-0.4124296509081609	0.0
1	0.03354430379746835	0.958120067834728	-0.564260437360829	0.0	0.9575864262599042	-0.5634604449353288	0.0	0.989133465054922	-0.6689969150345385	0.0	0.955834946546779	-0.770531546718055	0.0	0.9927155057013753	-0.7942188268228086	0.0	0.9835114552086908	-0.796861926908764	0.0	0.942991609447846	-0.7848145969355147	0.0	0.9603123426725716	-0.5624704182315794	0.0	0.9872227339520622	-0.6680656787685814	0.0	0.9576670432014457	-0.7643397823023015	0.0	0.994773645663354	-0.7902374501196109	0.0	0.9906389458992426	-0.7867052399030484	0.0	0.9423249574262678	-0.7785163320935976	0.0	0.988194690268853	-0.4225293460970545	0.0	1.0057314115453289	-0.3548574191969272	0.0	1.0183847975711469	-0.3924477924889431	0.0	0.9887560798838567	-0.4334317585325087	0.0	1.0617461078088715	-0.4439398805875593	0.0	1.1306589480340024	-0.4278441979173376	0.0	0.9784391090630224	-0.43339278852575114	0.0	1.0479717377252435	-0.44727249281041553	0.0	1.1195731053999884	-0.43314872403775734	0.0
2	0.0670886075949367	0.9562317377019945	-0.5693303185035175	0.0	0.9551930462741334	-0.5679093549868119	0.0	0.9940739228537201	-0.6699769479565402	0.0	0.9557818881748376	-0.7713196812920822	0.0	0.994030433301745	-0.7937238289521792	0.0	0.9845571296627915	-0.7961877863024496	0.0	0.9432449946800777	-0.7851664763666591	0.0	0.9580679863901802	-0.5673220789576012	0.0	0.9918685932408143	-0.6694415934726413	0.0	0.9580602057161639	-0.7646900639829429	0.0	0.996757836132904	-0.7912618467774564	0.0	0.9914696457994808	-0.7871405793376661	0.0	0.9408252988821839	-0.7783249883369177	0.0	0.9893313421871655	-0.42733206849694855	0.0	1.0069160380945343	-0.3609986039487161	0.0	1.0201975145592073	-0.3979393639740673	0.0	0.9887820808216036	-0.43886522482439944	0.0	1.0592519206229878	-0.45838177830944254	0.0	1.1290232152113033	-0.4525585598482686	0.0	0.9802466713742463	-0.4388013494618124	0.0	1.0493035979005747	-0.45937758428203557	0.0	1.1189860250130776	-0.4547522124824392	0.0
3	0.10063291139240506	0.954972336584881	-0.5753024165870263	0.0	0.9534939664000246	-0.5735542920798176	0.0	0.9984129140907911	-0.672320947704518	0.0	0.9557709882511278	-0.7733438739323286	0.0	0.9950721512638996	-0.7946407216214415	0.0	0.9854490886043462	-0.7971038409082303	0.0	0.9433586448321072	-0.7868136851840625	0.0	0.9569891714292084	-0.5732146925347075	0.0	0.9960709955904824	-0.6719603490358081	0.0	0.9585867460986085	-0.7661450536728539	0.0	0.9985328307651029	-0.793037815209298	0.0	0.9922302482418626	-0.788408337896269	0.0	0.9398763803800045	-0.7793389483253409	0.0	0.9900487912426126	-0.4331671583046394	0.0	1.0080022577879861	-0.3677619899784189	0.0	1.021561074039611	-0.40414935235516813	0.0	0.9881189831519543	-0.4453814066730047	0.0	1.0551845034101694	-0.47381490045444474	0.0	1.125094786972129	-0.4780398656779175	0.0	0.98187383427607	-0.4453273328271389	0.0	1.0490687711798419	-0.4728538555949723	0.0	1.1166230227754463	-0.4776712130698495	0.0
4	0.1341772151898734	0.9544911899957554	-0.582155128206932	0.0	0.9527201439205788	-0.5803756410155364	0.0	1.0019080623159817	-0.6763557014748593	0.0	0.9558203090445125	-0.7769160275351992	0.0	0.9957875656297951	-0.7974014117469771	0.0	0.9860859493497959	-0.7999970301947038	0.0	0.9433214338261096	-0.7901173362985255	0.0	0.957121079212674	-0.5800918737278941	0.0	0.9995054083550189	-0.6759779624054788	0.0	0.9591597705482314	-0.7692162950079199	0.0	0.9999979095718947	-0.7959413784336064	0.0	0.9929496319463881	-0.7910066798854604	0.0	0.9395872933430784	-0.7821304058272809	0.0	0.9902268895449635	-0.44006512245276985	0.0	1.0088300228755438	-0.3751211002031494	0.0	1.0223903972857833	-0.41104546691832666	0.0	0.9867237224411328	-0.4530565379609584	0.0	1.049126228863606	-0.490303482608208	0.0	1.1181205237726688	-0.50430160772927	0.0	0.9833317893189573	-0.45303425122751323	0.0	1.0471349751063057	-0.48761042792338366	0.0	1.1118967783624485	-0.501561883001512	0.0
5	0.16772151898734178	0.9547388755987458	-0.5896146481091786	0.0	0.9529131519095034	-0.5880093568901843	0.0	1.0044329408256434	-0.6820594009094367	0.0	0.9559498960371208	-0.7820432385499357	0.0	0.9962313653624774	-0.8020885415996526	0.0	0.9864520115137475	-0.8048451426883387	0.0	0.9432049204870379	-0.7950955500343488	0.0	0.9581979373066564	-0.5876137035090282	0.0	1.0019633109494113	-0.6815705460789266	0.0	0.959643265396021	-0.7741691048231844	0.0	1.0011837301823625	-0.8002146110157998	0.0	0.9937459479177017	-0.7952345811076188	0.0	0.9399155370871499	-0.7869387616253325	0.0	0.9899122195542396	-0.4477100914134234	0.0	1.009236818736857	-0.38284448699560536	0.0	1.0227087684080942	-0.4183781831162753	0.0	0.9847883522248589	-0.4616365422174972	0.0	1.0410684234431518	-0.5075407199891785	0.0	1.1077684686525167	-0.530930255345708	0.0	0.9847130364006722	-0.4616266960638742	0.0	1.0437455544696563	-0.503008019328749	0.0	1.1047659696973986	-0.5254664658850671	0.0
6	0.20126582278481012	0.9554928792383547	-0.5972424731098859	0.0	0.9539129487376008	-0.5958660521027006	0.0	1.0060044249538453	-0.6890263751576994	0.0	0.9561620154301661	-0.7884135403298348	0.0	0.9964131960394937	-0.8083696762118477	0.0	0.9865240207851067	-0.8111894185756569	0.0	0.9431217287898204	-0.801363856678409	0.0	0.9597595970354584	-0.595268039905182	0.0	1.0034239884689216	-0.6884462306492921	0.0	0.9599488252512349	-0.7808443547170197	0.0	1.0021871742100024	-0.8057547790338919	0.0	0.9946989525165256	-0.8009679497737577	0.0	0.9407201850013438	-0.7935203895506466	0.0	0.9892875796122969	-0.45559151319696345	0.0	1.0091589701363928	-0.39056510058180466	0.0	1.0226525659823351	-0.42578184306174277	0.0	0.9827307249722612	-0.47063391956221884	0.0	1.03143008345351	-0.5248653403686182	0.0	1.0941348767450425	-0.5570733818619934	0.0	0.9860363551017425	-0.4705573327232984	0.0	1.03923071866798	-0.5181925596370747	0.0	1.095654347940386	-0.5482415051120592	0.0
7	0.23481012658227846	0.9564732425024483	-0.6044652202718526	0.0	0.9554317428867095	-0.6032275218176781	0.0	1.0067638821723195	-0.6965237961443376	0.0	0.9564152842315913	-0.7953924527923435	0.0	0.99622486635937	-0.8155177382416364	0.0	0.9862126656616352	-0.8182062850966456	0.0	0.9431388212585791	-0.808163357776557	0.0	0.9613052632885514	-0.6024330282613934	0.0	1.0040411002042469	-0.6959408406401738	0.0	0.9600826680692411	-0.7885723536345968	0.0	1.003039638410469	-0.8120227599607336	0.0	0.9957121298971441	-0.8076060600900162	0.0	0.9418001011901277	-0.8011190612128467	0.0	0.9885698155730768	-0.4631065265369742	0.0	1.0087140306856113	-0.3978343092162197	0.0	1.0224326157722425	-0.43282805305843064	0.0	0.9810652060151297	-0.4794160283412858	0.0	1.0209093473968978	-0.5412834053224473	0.0	1.0776691757122363	-0.5814786473110062	0.0	0.98710296711279	-0.4791185874271581	0.0	1.0337546250661407	-0.532355304143569	0.0	1.0850681242387903	-0.5689516137279927	0.0
